<?xml version="1.0" standalone="no"?>
<!DOCTYPE svg PUBLIC "-//W3C//DTD SVG 20010904//EN"
 "http://www.w3.org/TR/2001/REC-SVG-20010904/DTD/svg10.dtd">
<svg version="1.0" xmlns="http://www.w3.org/2000/svg"
 width="839.000000pt" height="196.000000pt" viewBox="0 0 839.000000 196.000000"
 preserveAspectRatio="xMidYMid meet">

<g transform="translate(0.000000,196.000000) scale(0.100000,-0.100000)"
fill="#000000" stroke="none">
<path d="M475 1790 c-3 -5 -3 -14 0 -20 4 -7 8 -467 5 -723 0 -5 -9 -6 -19 -2
-11 3 -33 -2 -50 -13 -26 -16 -29 -21 -17 -31 8 -6 12 -20 9 -30 -5 -19 0 -25
50 -62 l27 -20 0 -318 c0 -239 3 -321 13 -334 11 -15 28 -17 137 -15 l125 3 3
310 c1 171 0 324 -3 341 -3 17 -18 44 -34 59 l-28 29 33 32 34 31 0 356 c0
195 -3 362 -6 371 -5 13 -26 16 -125 16 -99 0 -119 3 -119 15 0 17 -25 20 -35
5z"/>
<path d="M1135 1790 c-3 -5 -3 -14 0 -20 11 -17 6 -733 -5 -744 -7 -7 -10 -6
-10 2 0 20 -25 14 -49 -12 -15 -16 -19 -26 -11 -31 6 -4 8 -15 5 -26 -5 -14 4
-25 34 -46 l40 -28 1 -313 c0 -196 4 -321 10 -333 10 -17 22 -19 133 -19 68 0
127 4 133 9 12 13 3 659 -10 685 -7 15 -1 13 33 -9 32 -21 44 -38 55 -74 42
-141 191 -588 199 -599 7 -9 45 -12 146 -10 l136 3 0 333 0 334 -36 33 -36 33
24 11 c49 23 53 52 53 425 0 189 -3 351 -6 360 -5 13 -26 16 -125 16 -99 0
-119 3 -119 15 0 16 -18 19 -38 6 -11 -6 -11 -10 0 -19 17 -14 14 -732 -3
-732 -6 0 -19 -10 -28 -21 -17 -21 -17 -21 -13 13 3 24 -26 136 -93 359 -53
178 -101 336 -107 352 l-10 27 -134 0 c-112 0 -134 2 -134 15 0 17 -25 20 -35
5z m235 -830 c0 -5 -2 -10 -4 -10 -3 0 -8 5 -11 10 -3 6 -1 10 4 10 6 0 11 -4
11 -10z"/>
<path d="M2355 1790 c-3 -5 -3 -14 0 -20 3 -5 6 -171 5 -367 0 -338 -1 -358
-18 -356 -10 1 -31 -9 -47 -22 -23 -19 -27 -27 -17 -33 8 -5 13 -15 12 -23 -4
-29 1 -38 35 -58 l35 -20 0 -316 c0 -199 4 -323 10 -336 10 -17 22 -19 135
-19 71 0 126 4 130 10 3 5 6 149 5 320 l-1 310 151 0 c145 0 150 1 150 21 0
11 -14 34 -31 51 -23 24 -27 33 -17 39 7 5 16 9 20 9 14 0 38 59 38 92 0 56
-4 57 -160 60 l-145 3 -3 178 -2 177 197 0 c109 0 204 4 211 8 9 7 12 41 10
138 l-3 129 -332 3 c-287 2 -333 4 -333 17 0 17 -25 20 -35 5z"/>
<path d="M3435 1790 c-3 -5 -3 -14 0 -20 4 -7 8 -467 5 -723 0 -5 -9 -6 -19
-2 -11 3 -33 -2 -50 -13 -26 -16 -29 -21 -17 -31 8 -6 12 -20 9 -30 -5 -19 0
-25 50 -62 l27 -20 0 -318 c0 -239 3 -321 13 -334 11 -15 28 -17 137 -15 l125
3 3 310 c1 171 0 324 -3 341 -3 17 -18 44 -34 59 l-28 29 33 32 34 31 0 356
c0 195 -3 362 -6 371 -5 13 -26 16 -125 16 -99 0 -119 3 -119 15 0 17 -25 20
-35 5z"/>
<path d="M4095 1790 c-3 -5 -3 -14 0 -20 11 -17 6 -733 -5 -744 -7 -7 -10 -6
-10 2 0 20 -25 14 -49 -12 -15 -16 -19 -26 -11 -31 6 -4 8 -15 5 -26 -5 -14 4
-25 34 -46 l40 -28 1 -313 c0 -196 4 -321 10 -333 10 -17 22 -19 133 -19 68 0
127 4 133 9 12 13 3 659 -10 685 -7 15 -1 13 33 -9 32 -21 44 -38 55 -74 42
-141 191 -588 199 -599 7 -9 45 -12 146 -10 l136 3 0 333 0 334 -36 33 -36 33
24 11 c49 23 53 52 53 425 0 189 -3 351 -6 360 -5 13 -26 16 -125 16 -99 0
-119 3 -119 15 0 16 -18 19 -38 6 -11 -6 -11 -10 0 -19 17 -14 14 -732 -3
-732 -6 0 -19 -10 -28 -21 -17 -21 -17 -21 -13 13 3 24 -26 136 -93 359 -53
178 -101 336 -107 352 l-10 27 -134 0 c-112 0 -134 2 -134 15 0 17 -25 20 -35
5z m235 -830 c0 -5 -2 -10 -4 -10 -3 0 -8 5 -11 10 -3 6 -1 10 4 10 6 0 11 -4
11 -10z"/>
<path d="M5315 1790 c-3 -5 -3 -14 0 -20 4 -7 8 -467 5 -723 0 -5 -9 -6 -19
-2 -11 3 -33 -2 -50 -13 -26 -16 -29 -21 -17 -31 8 -6 12 -20 9 -30 -5 -19 0
-25 50 -62 l27 -20 0 -318 c0 -239 3 -321 13 -334 11 -15 28 -17 137 -15 l125
3 3 310 c1 171 0 324 -3 341 -3 17 -18 44 -34 59 l-28 29 33 32 34 31 0 356
c0 195 -3 362 -6 371 -5 13 -26 16 -125 16 -99 0 -119 3 -119 15 0 17 -25 20
-35 5z"/>
<path d="M5975 1790 c-3 -5 -3 -15 1 -22 4 -6 6 -62 5 -124 -3 -157 -6 -154
129 -154 l110 0 0 -225 0 -225 -23 5 c-30 8 -74 -25 -62 -45 5 -8 9 -25 10
-39 0 -13 6 -26 12 -28 7 -3 23 -13 37 -24 l26 -20 0 -318 c0 -239 3 -321 13
-334 11 -15 28 -17 137 -15 l125 3 3 310 c1 171 0 324 -3 341 -3 17 -18 43
-33 59 l-28 27 33 33 33 33 0 231 0 230 118 3 117 3 3 115 c1 63 0 125 -3 138
l-5 22 -360 0 c-313 0 -360 2 -360 15 0 17 -25 20 -35 5z"/>
<path d="M7115 1790 c-3 -5 -3 -14 0 -20 3 -5 6 -171 5 -367 0 -338 -1 -358
-18 -356 -10 1 -31 -9 -47 -22 -23 -19 -27 -27 -17 -33 8 -5 13 -15 12 -23 -4
-29 1 -38 35 -58 l35 -20 0 -319 c0 -239 3 -322 13 -335 11 -16 41 -17 347
-15 l335 3 0 130 0 130 -207 3 -208 2 0 185 0 185 150 0 c145 0 150 1 150 21
0 11 -14 34 -31 51 -23 24 -27 33 -17 39 7 5 16 9 20 9 14 0 38 59 38 92 0 56
-4 57 -160 60 l-145 3 -3 178 -2 177 197 0 c109 0 204 4 211 8 9 7 12 41 10
138 l-3 129 -332 3 c-287 2 -333 4 -333 17 0 17 -25 20 -35 5z"/>
</g>
</svg>
